<?xml version="1.0" encoding="UTF-8" standalone="no"?>
<svg width="102px" height="102px" viewBox="0 0 102 102" version="1.1" xmlns="http://www.w3.org/2000/svg" xmlns:xlink="http://www.w3.org/1999/xlink" xmlns:sketch="http://www.bohemiancoding.com/sketch/ns">
    <!-- Generator: Sketch 3.3.3 (12081) - http://www.bohemiancoding.com/sketch -->
    <title>Artboard 2</title>
    <desc>Created with Sketch.</desc>
    <defs></defs>
    <g id="Page-1" stroke="none" stroke-width="1" fill="none" fill-rule="evenodd" sketch:type="MSPage">
        <g id="Artboard-2" sketch:type="MSArtboardGroup" fill="#137DA0">
            <g id="Group" sketch:type="MSLayerGroup" transform="translate(10.000000, 27.000000)">
                <ellipse id="Oval" sketch:type="MSShapeGroup" cx="7.60833333" cy="11.4138462" rx="4.0836" ry="4.11969231"></ellipse>
                <ellipse id="Oval" sketch:type="MSShapeGroup" cx="75.2690111" cy="11.4138462" rx="4.08452222" ry="4.11969231"></ellipse>
                <ellipse id="Oval" sketch:type="MSShapeGroup" cx="41.4382111" cy="3.99230769" rx="3.80877778" ry="3.84184615"></ellipse>
                <path d="M82.2594556,38.9852308 L80.1189778,17.3363077 L73.0519889,17.5504615 L67.4845333,25.9089231 L63.0172889,26.6150769 L60.2967333,22.7483077 L54.5937111,22.7483077 L45.9626333,9.35723077 L37.2799111,9.34153846 L28.967,22.7492308 L23.2289333,22.7492308 L20.1597778,26.6630769 L15.3946556,25.9107692 L9.82627778,17.5523077 L2.76021111,17.3381538 L0.617888889,38.9852308 L9.1632,40.6966154 L4.01535556,47.2643077 L77.5312222,47.2643077 L73.0132556,40.836 L82.2594556,38.9852308 L82.2594556,38.9852308 Z M70.4808333,29.5550769 L73.2650222,26.124 L74.3375667,34.0569231 L69.2017111,35.4138462 L65.0821444,29.5550769 L70.4808333,29.5550769 L70.4808333,29.5550769 Z M50.6032556,22.7492308 L47.7563556,22.7492308 L47.5073556,18.7624615 L50.6032556,22.7492308 L50.6032556,22.7492308 Z M36.4314667,19.0098462 L36.2580889,22.7483077 L32.9888111,22.7483077 L36.4314667,19.0098462 L36.4314667,19.0098462 Z M8.54162222,34.0569231 L9.61232222,26.124 L12.3974333,29.5550769 L17.8948,29.5550769 L13.3676111,35.3307692 L8.54162222,34.0569231 L8.54162222,34.0569231 Z M8.65505556,45.0055385 L24.3273,25.0061538 L59.1255111,25.0061538 L73.1820222,45.0055385 L8.65505556,45.0055385 L8.65505556,45.0055385 Z" id="Shape" sketch:type="MSShapeGroup"></path>
                <path id="Shape" sketch:type="MSShapeGroup" d="M58.3628333,28.7390769 L58.4248333,28.6809231 L58.3628333,28.5950769 L58.3628333,28.7390769 Z"></path>
            </g>
        </g>
    </g>
</svg>