<?xml version="1.0" encoding="UTF-8" standalone="no"?>
<svg width="139px" height="87px" viewBox="0 0 139 87" version="1.1" xmlns="http://www.w3.org/2000/svg" xmlns:xlink="http://www.w3.org/1999/xlink">
    <!-- Generator: Sketch 40.1 (33804) - http://www.bohemiancoding.com/sketch -->
    <title>Mail icone</title>
    <desc>Created with Sketch.</desc>
    <defs></defs>
    <g id="Page-1" stroke="none" stroke-width="1" fill="none" fill-rule="evenodd">
        <g id="Desktop-HD-Copy-3" transform="translate(-1020.000000, -1130.000000)" fill="#115FA6">
            <g id="Growth-Hacking-tips" transform="translate(98.000000, 888.000000)">
                <g id="via-email" transform="translate(922.000000, 242.000000)">
                    <g id="Mail-icone" transform="translate(0.300000, 0.000000)">
                        <path d="M4.87847944,0 C2.25637206,0 0.0447750746,2.11679883 0.0447750746,4.6265456 L0.0447750746,81.7356544 C0.0447750746,84.2454012 2.25637206,86.3622 4.87847944,86.3622 L133.777266,86.3622 C136.399373,86.3622 138.61097,84.2454012 138.61097,81.7356544 L138.61097,4.6265456 C138.61097,2.11679883 136.399373,0 133.777266,0 L4.87847944,0 L4.87847944,0 Z M6.48971422,6.16872747 L132.166031,6.16872747 L132.166031,10.747157 L69.3278709,54.7474717 L6.48971422,10.747157 L6.48971422,6.16872747 L6.48971422,6.16872747 Z M6.48971422,18.4097652 L67.4145296,61.0608558 C68.5520473,61.8641318 70.1036945,61.8641318 71.2412122,61.0608558 L132.166031,18.4097652 L132.166031,80.1934725 L6.48971422,80.1934725 L6.48971422,18.4097652 L6.48971422,18.4097652 Z" id="Shape"></path>
                    </g>
                </g>
            </g>
        </g>
    </g>
</svg>