<?xml version="1.0" encoding="UTF-8" standalone="no"?>
<svg width="1440px" height="819px" viewBox="0 0 1440 819" version="1.1" xmlns="http://www.w3.org/2000/svg" xmlns:xlink="http://www.w3.org/1999/xlink">
    <!-- Generator: Sketch 40.1 (33804) - http://www.bohemiancoding.com/sketch -->
    <title>Background</title>
    <desc>Created with Sketch.</desc>
    <defs>
        <linearGradient x1="65.4043908%" y1="92.7513656%" x2="30.6669903%" y2="-20.6992238%" id="linearGradient-1">
            <stop stop-color="#0F3CA1" offset="0%"></stop>
            <stop stop-color="#20EEED" offset="100%"></stop>
        </linearGradient>
        <linearGradient x1="64.4313947%" y1="92.7513656%" x2="31.888132%" y2="-20.6992238%" id="linearGradient-2">
            <stop stop-color="#0F3CA1" offset="0%"></stop>
            <stop stop-color="#20EEED" offset="100%"></stop>
        </linearGradient>
        <path d="M1501.42708,0 L0,0 L0,800.976935 C0,800.976935 112.533719,840.491705 334.565587,800.976935 C556.597456,761.462165 588.751585,726.724158 760.014983,711.991008 C931.278382,697.257857 1092.51295,729.555687 1233.37483,754.981881 C1374.23671,780.408075 1501.42708,720.876939 1501.42708,697.257857" id="path-3"></path>
        <path d="M1501.42708,0 L0,0 L0,800.976935 C0,800.976935 112.533719,840.491705 334.565587,800.976935 C556.597456,761.462165 588.751585,726.724158 760.014983,711.991008 C931.278382,697.257857 1092.51295,729.555687 1233.37483,754.981881 C1374.23671,780.408075 1501.42708,720.876939 1501.42708,697.257857" id="path-5"></path>
        <path d="M1501.42708,0 L0,0 L0,800.976935 C0,800.976935 112.533719,840.491705 334.565587,800.976935 C556.597456,761.462165 588.751585,726.724158 760.014983,711.991008 C931.278382,697.257857 1092.51295,729.555687 1233.37483,754.981881 C1374.23671,780.408075 1501.42708,720.876939 1501.42708,697.257857" id="path-7"></path>
    </defs>
    <g id="Page-1" stroke="none" stroke-width="1" fill="none" fill-rule="evenodd">
        <g id="Desktop-HD-Copy-3">
            <g id="Header" transform="translate(-3981.000000, 0.000000)">
                <g id="Background" transform="translate(3949.000000, 0.000000)">
                    <g id="mask-3" transform="translate(0.572921, 0.000000)" fill="#FFFFFF">
                        <path d="M1501.42708,0 L0,0 L0,800.976935 C0,800.976935 112.533719,840.491705 334.565587,800.976935 C556.597456,761.462165 588.751585,726.724158 760.014983,711.991008 C931.278382,697.257857 1092.51295,729.555687 1233.37483,754.981881 C1374.23671,780.408075 1501.42708,720.876939 1501.42708,697.257857" id="path-2"></path>
                    </g>
                    <g id="Mask" transform="translate(0.572921, 0.000000)" fill="url(#linearGradient-2)">
                        <path d="M1501.42708,0 L0,0 L0,800.976935 C0,800.976935 112.533719,840.491705 334.565587,800.976935 C556.597456,761.462165 588.751585,726.724158 760.014983,711.991008 C931.278382,697.257857 1092.51295,729.555687 1233.37483,754.981881 C1374.23671,780.408075 1501.42708,720.876939 1501.42708,697.257857" id="path-2"></path>
                    </g>
                    <g id="Lignes-Clipped" transform="translate(0.572921, 0.000000)">
                        <mask id="mask-4" fill="white">
                            <use xlink:href="#path-3"></use>
                        </mask>
                        <g id="path-2"></g>
                        <g id="Lignes" opacity="0.049999991" mask="url(#mask-4)">
                            <g transform="translate(-13.196136, 81.032328)" id="Group-9">
                                <g></g>
                            </g>
                        </g>
                    </g>
                    <g id="Path-3-Clipped" transform="translate(0.572921, 0.000000)">
                        <mask id="mask-6" fill="white">
                            <use xlink:href="#path-5"></use>
                        </mask>
                        <g id="path-2"></g>
                        <path d="M-274.793504,632.719752 C-274.793504,632.719752 -120.6553,467.46675 28.6030839,467.46675 C177.861468,467.46675 270.406247,571.151297 495.04985,571.151297 C719.693455,571.151297 769.648622,472.807517 859.490026,422.599704 C949.331431,372.391888 1071.2926,301.108762 1194.72,333.199407 C1318.14741,365.290052 1444.55311,491.926079 1569.12028,476.306639 C1693.68746,460.6872 1804.98404,755.396251 1804.98404,755.396251 C1804.98404,755.396251 1446.51191,955.582935 1409.58105,955.582933 C1372.6502,955.582932 447.133672,1014.52705 427.580021,1014.52704 C408.026372,1014.52704 -300.223558,1003.6038 -300.223558,1003.6038 L-292.285258,697.983005 L-274.793504,632.719752 L-274.793504,632.719752 Z" id="Path-3" fill-opacity="0.0700000003" fill="#000000" mask="url(#mask-6)"></path>
                    </g>
                    <g id="Path-4-Clipped" transform="translate(0.572921, 0.000000)">
                        <mask id="mask-8" fill="white">
                            <use xlink:href="#path-7"></use>
                        </mask>
                        <g id="path-2"></g>
                        <path d="M-311.260431,414.985658 C-215.479052,345.529492 -203.107215,404.196112 -173.136288,374.411942 C-103.398373,305.108584 14.9029284,201.026932 241.276234,237.261274 C467.649539,273.495617 646.897061,562.645205 806.464926,575.087811 C966.032791,587.530417 1104.29439,365.405153 1341.65302,365.405153 C1579.01165,365.405153 1761.15156,602.039117 1761.15156,602.039117 L774.516987,1162.33047 L-527.702271,699.795874 C-527.702271,699.795874 -438.348156,507.143715 -311.260431,414.985658 L-311.260431,414.985658 Z" id="Path-4" fill-opacity="0.207" fill="#000000" mask="url(#mask-8)"></path>
                    </g>
                </g>
            </g>
        </g>
    </g>
</svg>