<?xml version="1.0" encoding="utf-8"?>
<!-- Generator: Adobe Illustrator 16.0.0, SVG Export Plug-In . SVG Version: 6.00 Build 0)  -->
<!DOCTYPE svg PUBLIC "-//W3C//DTD SVG 1.1//EN" "http://www.w3.org/Graphics/SVG/1.1/DTD/svg11.dtd">
<svg version="1.1" id="Calque_1" xmlns="http://www.w3.org/2000/svg" xmlns:xlink="http://www.w3.org/1999/xlink" x="0px" y="0px"
	 width="37px" height="37px" viewBox="0 0 37 37" enable-background="new 0 0 37 37" xml:space="preserve">
<title>slack [#175]</title>
<desc>Created with Sketch.</desc>
<g id="Homepage-">
	<g id="Desktop" transform="translate(-75.000000, -1411.000000)">
		<g id="Features" transform="translate(76.000000, 652.000000)">
			<g id="_x30_1" transform="translate(0.000000, 760.000000)">
				<path id="slack-_x5B__x23_175_x5D_" fill="none" stroke="#0D70E2" stroke-width="2" d="M34.886,18.471l-0.038-0.127
					c-0.408-1.218-1.568-2.029-2.889-2.019c-0.332,0.003-0.662,0.058-0.982,0.165l-3.438,1.169l-2.219-6.631l0,0l0,0
					c3.237-1.112,3.306-1.135,3.306-1.135c1.379-0.467,2.532-1.92,2.068-3.551l-0.038-0.12c-0.417-1.248-1.555-2.049-2.895-2.038
					c-0.301,0.001-0.604,0.045-0.905,0.134l-3.398,1.146l-1.13-3.374c-0.26-0.776-0.806-1.403-1.533-1.768
					C20.361,0.105,19.896-0.003,19.419,0c-0.319,0.004-0.64,0.058-0.95,0.162c-1.543,0.524-2.404,2.167-1.957,3.742l0.041,0.139
					l1.127,3.368l2.029,6.065l2.059,6.146l-6.515,2.216l0,0l-2.207-6.594l0,0l0,0c2.223-0.764,4.109-1.412,5.744-1.973l-1.109-5.86
					l-6.521,2.197l-1.124-3.357c-0.42-1.259-1.591-2.097-2.912-2.086c-0.322,0.001-0.641,0.056-0.948,0.16
					C4.632,4.848,3.772,6.492,4.22,8.067c0.012,0.046,0.028,0.092,0.042,0.138l1.12,3.35l0,0l1.897,5.67l0,0l0,0l2.202,6.576
					l-3.283,1.116c-1.55,0.524-2.411,2.179-1.961,3.762c0.014,0.048,0.028,0.093,0.043,0.14c0.403,1.203,1.514,1.977,2.83,1.966
					v0.001c0.352-0.003,0.705-0.064,1.052-0.181l3.225-1.108l1.143,3.416c0.422,1.259,1.593,2.099,2.914,2.088l0,0l0,0
					c0.32-0.004,0.639-0.057,0.945-0.16c1.547-0.524,2.407-2.169,1.958-3.746c-0.012-0.044-0.025-0.092-0.041-0.136l-1.153-3.446
					l6.508-2.237l1.164,3.479c0.42,1.257,1.591,2.095,2.912,2.086c0.321-0.004,0.64-0.059,0.946-0.161
					c1.544-0.521,2.402-2.168,1.939-3.803l-0.025-0.08l-1.172-3.504l3.61-1.242c0,0,1.118-0.488,1.474-1.043
					C34.983,20.26,35.125,19.312,34.886,18.471L34.886,18.471z M6.562,17.471c-0.836,0.287-1.677,0.576-2.576,0.884
					c-0.331,0.112-0.668,0.169-1.006,0.173c-1.307,0.01-2.413-0.773-2.821-1.995c-0.016-0.047-0.03-0.093-0.042-0.139
					c-0.444-1.565,0.418-3.202,1.962-3.727l3.244-1.093L6.562,17.471z"/>
			</g>
		</g>
	</g>
</g>
<path fill="#FFFFFF" d="M8.665,12.835c0.155-0.052,0.553,0.715,0.89,1.714l0.061,0.182c0.336,0.999,0.483,1.85,0.329,1.902
	l-3.563,1.2c-0.154,0.051-0.553-0.715-0.889-1.714l-0.061-0.182c-0.336-0.999-0.484-1.852-0.329-1.903L8.665,12.835z"/>
<path fill="#FFFFFF" d="M6.912,10.977c-0.05-0.156,0.319-0.415,0.827-0.58l0.092-0.03c0.507-0.165,0.958-0.172,1.009-0.017
	l1.161,3.576c0.05,0.155-0.32,0.415-0.827,0.58l-0.092,0.029c-0.507,0.165-0.959,0.173-1.009,0.017L6.912,10.977z"/>
<path fill="#FFFFFF" d="M20.675,8.804c0.155-0.052,0.547,0.696,0.876,1.67l0.059,0.177c0.328,0.975,0.468,1.806,0.313,1.858
	l-3.562,1.2c-0.154,0.051-0.546-0.695-0.874-1.67l-0.06-0.177c-0.329-0.975-0.469-1.808-0.314-1.859L20.675,8.804z"/>
<path fill="#FFFFFF" d="M19.162,6.665c-0.051-0.156,0.319-0.415,0.827-0.58l0.093-0.03c0.506-0.165,0.957-0.172,1.008-0.017
	l1.161,3.576c0.05,0.155-0.319,0.415-0.827,0.58l-0.092,0.029c-0.508,0.165-0.959,0.173-1.01,0.017L19.162,6.665z"/>
</svg>
