<?xml version="1.0" encoding="UTF-8" standalone="no"?>
<svg width="171px" height="193px" viewBox="0 0 171 193" version="1.1" xmlns="http://www.w3.org/2000/svg" xmlns:xlink="http://www.w3.org/1999/xlink">
    <!-- Generator: Sketch 40.1 (33804) - http://www.bohemiancoding.com/sketch -->
    <title>Group 2</title>
    <desc>Created with Sketch.</desc>
    <defs></defs>
    <g id="Page-1" stroke="none" stroke-width="1" fill="none" fill-rule="evenodd">
        <g id="Desktop-HD-Copy-3" transform="translate(-95.000000, -4778.000000)" fill="#FFFFFF">
            <g id="Group-2" transform="translate(94.000000, 4778.000000)">
                <g id="Group" transform="translate(49.500000, 0.000000)">
                    <path d="M53.231418,52.3855776 C54.4022014,51.2128232 54.4022014,49.3007235 53.231418,48.127969 C52.0606345,46.9552145 50.1517484,46.9552145 48.9936909,48.127969 C45.4686146,51.6589797 40.8618363,53.4181114 36.2296061,53.4181114 C31.5973759,53.4181114 26.9905976,51.6589797 23.4782472,48.127969 C22.3074638,46.9552145 20.3985777,46.9552145 19.2277943,48.127969 C18.0442849,49.2879761 18.0442849,51.2128232 19.2150684,52.3855776 C28.6067878,61.7803607 43.8524244,61.7803607 53.231418,52.3855776 Z" id="Fill-252_8_"></path>
                    <ellipse id="Oval-2_17_" cx="26.1379618" cy="29.7973068" rx="5.15399236" ry="5.16266912"></ellipse>
                    <ellipse id="Oval-2_16_" cx="46.7666572" cy="29.7973068" rx="5.15399236" ry="5.16266912"></ellipse>
                    <path d="M27.4232784,90.9207597 L45.4686146,90.9207597 C47.1229826,90.9207597 48.4719287,89.5695426 48.4719287,87.8996422 C48.4719287,86.2424892 47.1229826,84.8912721 45.4686146,84.8912721 L27.4232784,84.8912721 C25.7689105,84.8912721 24.4199644,86.2424892 24.4199644,87.8996422 C24.4199644,89.5567953 25.7689105,90.9207597 27.4232784,90.9207597" id="Fill-253_8_"></path>
                    <path d="M24.4199644,78.8490371 L48.4719287,78.8490371 C50.1390225,78.8490371 51.4879687,77.49782 51.4879687,75.8406669 C51.4879687,74.1835139 50.1390225,72.8195495 48.4719287,72.8195495 L24.4199644,72.8195495 C22.7528705,72.8195495 21.4039244,74.1707666 21.4039244,75.8406669 C21.4039244,77.5105673 22.7528705,78.8490371 24.4199644,78.8490371" id="Fill-254_8_"></path>
                    <path d="M55.5348071,59.8937557 C51.3479837,63.3100404 48.4719287,68.3579836 48.4719287,74.0942826 L48.4719287,84.8785247 L42.7834483,84.8785247 L42.0835234,86.9053504 C41.2945171,89.1871227 39.0293057,90.9207597 36.4459465,90.9080124 C33.8625874,90.9207597 31.5719241,89.19987 30.7192884,86.8671084 L30.0066376,84.8785247 L24.4072385,84.8785247 L24.4072385,74.0942826 C24.4072385,68.3324889 21.4675539,63.2972931 17.2807305,59.8937557 L17.2934564,59.8937557 C10.6123552,54.3486666 6.36190223,46.050154 6.34917632,36.6681183 C6.34917632,28.3696057 9.72154169,20.8486803 15.1809558,15.3928226 C20.64037,9.93696488 28.1359292,6.54617479 36.4332206,6.54617479 C44.7177861,6.54617479 52.2133454,9.92421755 57.6727595,15.3928226 C63.1194477,20.8614277 66.4918131,28.3696057 66.4918131,36.6681183 C66.5172649,46.0629014 62.266812,54.3614139 55.5348071,59.8937557 L55.5348071,59.8937557 L55.5348071,59.8937557 Z M36.4586724,0.542181818 C16.5680797,0.542181818 0.368,16.756787 0.368,36.693613 C0.368,47.9240117 5.49654055,57.943414 13.4884102,64.5592789 L13.5011361,64.5720262 C16.5426279,67.0705031 18.4260621,70.4740405 18.4133362,74.1070299 L18.4133362,84.8912721 C18.4133362,86.5229304 19.0750834,88.0653575 20.1567855,89.1488807 C21.2512135,90.2451511 22.7910483,90.9207597 24.4199644,90.9207597 L26.0361546,90.9207597 C28.1359292,94.5027597 31.9918791,96.9247527 36.4459465,96.9375 C40.8745622,96.9375 44.7432379,94.5155071 46.8048349,90.9207597 L48.4592028,90.9207597 C50.0881189,90.9207597 51.6406796,90.2578985 52.7223817,89.1488807 C53.8168097,88.0653575 54.4785569,86.5229304 54.4785569,84.8912721 L54.4785569,74.1070299 C54.4785569,70.4485459 56.2983616,67.0577558 59.3271274,64.5720262 C67.3953525,57.943414 72.536619,47.9240117 72.5238931,36.693613 C72.5238931,16.756787 56.3492652,0.542181818 36.4586724,0.542181818 L36.4586724,0.542181818 L36.4586724,0.542181818 Z" id="Fill-255_8_"></path>
                </g>
                <g id="Group" transform="translate(0.500000, 132.000000)">
                    <path d="M27.4067439,26.1282606 C27.0863534,26.7166322 26.5924179,27.010818 25.9249375,27.010818 C25.5244493,27.010818 25.0705627,26.850353 24.5632776,26.5695393 C24.0559925,26.2753535 23.4419106,25.9410514 22.7076822,25.5933773 C21.9734537,25.2323311 21.0923797,24.884657 20.0778095,24.5904712 C19.0632393,24.2829133 17.8617747,24.1224484 16.4734155,24.1224484 C15.2719508,24.1224484 14.1906326,24.2829133 13.2294609,24.5904712 C12.2682892,24.884657 11.4406135,25.3259357 10.7597835,25.860819 C10.0789536,26.3957022 9.55831888,27.010818 9.19787948,27.7195383 C8.83744008,28.4416307 8.65054558,29.2038393 8.65054558,30.0329084 C8.65054558,31.0759307 8.94423694,31.9584881 9.54496928,32.6404643 C10.1457016,33.3358125 10.9333284,33.9375562 11.934549,34.4456953 C12.9224199,34.9538344 14.043787,35.395113 15.2986501,35.7962755 C16.5535131,36.1974379 17.8350755,36.5986004 19.1700362,37.0398791 C20.5049969,37.4811578 21.7732096,37.9625527 23.0414223,38.4974359 C24.2962854,39.0323192 25.4176524,39.7009233 26.4055234,40.5032482 C27.3933943,41.3055731 28.1810212,42.2951071 28.7951031,43.4584782 C29.3958354,44.6218493 29.6895268,46.0125457 29.6895268,47.6439397 C29.6895268,49.5160311 29.3557866,51.2544017 28.6883063,52.8456794 C28.0208259,54.423585 27.0329549,55.8142814 25.7246934,56.9776525 C24.4164319,58.1410236 22.814479,59.0503252 20.9188348,59.7189292 C19.0231905,60.4009054 16.8338549,60.7218353 14.3508279,60.7218353 C11.5207112,60.7218353 8.95758655,60.2671846 6.66145408,59.3311389 C4.36532161,58.4218373 2.41627894,57.2317221 0.81432605,55.7741652 L2.49637658,53.0462606 C2.7099703,52.7119585 2.96361284,52.4311448 3.2573042,52.2439357 C3.55099556,52.0567266 3.93813418,51.963122 4.41872004,51.963122 C4.89930591,51.963122 5.40659099,52.1637032 5.94057528,52.5247494 C6.47455958,52.8991677 7.12869034,53.3270743 7.88961796,53.7817251 C8.65054558,54.2363758 9.57166849,54.6375383 10.6529867,55.0253286 C11.7343049,55.413119 13.0959648,55.5869561 14.7246169,55.5869561 C16.1129761,55.5869561 17.3277904,55.3997469 18.3690598,55.0387007 C19.4103291,54.6910266 20.2780536,54.1962596 20.9722332,53.5811438 C21.6664128,52.9660281 22.1870475,52.2573078 22.5207876,51.468355 C22.8545278,50.652658 23.0280727,49.8102169 23.0280727,48.9009153 C23.0280727,47.7776605 22.7343814,46.8549869 22.1202994,46.1061503 C21.5195671,45.3706858 20.7319403,44.742198 19.7440693,44.2206868 C18.7561984,43.6991756 17.6214817,43.2445249 16.3666186,42.8567345 C15.0984059,42.4689441 13.803494,42.0544096 12.4818829,41.626503 C11.1602718,41.1985964 9.86535985,40.7172015 8.59714715,40.1689461 C7.32893445,39.6206908 6.19421782,38.9253426 5.21969649,38.1096456 C4.23182554,37.2805765 3.4308491,36.2509263 2.83011676,35.0474389 C2.22938443,33.8172074 1.93569307,32.3462785 1.93569307,30.6079079 C1.93569307,29.0567464 2.25608365,27.5590733 2.8968648,26.1416327 C3.53764596,24.71082 4.47211847,23.4538443 5.70028235,22.3707057 C6.92844623,21.2875671 8.43695186,20.4183818 10.2257993,19.789894 C12.0146466,19.134662 14.0571366,18.8271041 16.353269,18.8271041 C19.0231905,18.8271041 21.4127702,19.2416386 23.5487074,20.0974518 C25.671295,20.9265209 27.5001912,22.089892 29.0487457,23.5608209 L27.4067439,26.1282606 L27.4067439,26.1282606 Z" id="Shape"></path>
                    <path d="M46.3498368,0.975375354 L46.3498368,35.7561592 L48.1920826,35.7561592 C48.7260669,35.7561592 49.166604,35.6892988 49.5136938,35.5288339 C49.8607836,35.381741 50.2479222,35.0875552 50.6751096,34.6329044 L63.4907327,20.8864047 C63.8912209,20.458498 64.2917091,20.0974518 64.6921974,19.8433823 C65.0926856,19.5625686 65.6266699,19.4422199 66.2941502,19.4422199 L72.7820594,19.4422199 L57.8438488,35.3683689 C57.4700598,35.8096476 57.0962708,36.21081 56.7358314,36.5718562 C56.375392,36.9061583 55.9615541,37.2270882 55.5210171,37.4811578 C56.001603,37.8020877 56.4287904,38.176506 56.815929,38.5910405 C57.2030676,39.005575 57.5768566,39.4735979 57.9239464,40.0084812 L73.78328,60.0666033 L67.3754684,60.0666033 C66.7880857,60.0666033 66.2808006,59.9462546 65.8803124,59.7323013 C65.4664746,59.5049759 65.0659864,59.1439297 64.705547,58.6625348 L51.3559396,42.0276655 C50.9554514,41.466038 50.5549631,41.0916197 50.1544749,40.9177827 C49.7539867,40.7439456 49.1532544,40.6503411 48.3522779,40.6503411 L46.3498368,40.6503411 L46.3498368,60.0666033 L39.1810977,60.0666033 L39.1810977,0.975375354 L46.3498368,0.975375354 L46.3498368,0.975375354 Z" id="Shape"></path>
                    <path d="M90.44359,6.67188206 C90.44359,7.36723029 90.2967443,8.02246229 90.0297522,8.62420595 C89.7494104,9.22594962 89.3622718,9.76083288 88.9083851,10.2288557 C88.4411489,10.6968786 87.893815,11.0579248 87.279733,11.3387385 C86.6656511,11.6061801 86.0115203,11.7265289 85.3306904,11.7265289 C84.6231612,11.7265289 83.98238,11.592808 83.3816477,11.3387385 C82.7809154,11.0579248 82.2469311,10.6968786 81.7796948,10.2288557 C81.3124585,9.76083288 80.9520191,9.22594962 80.6716774,8.62420595 C80.4046852,8.02246229 80.2845388,7.36723029 80.2845388,6.67188206 C80.2845388,5.97653382 80.4180348,5.30792975 80.6716774,4.692814 C80.9520191,4.06432617 81.3124585,3.51607083 81.7796948,3.04804798 C82.2469311,2.58002513 82.7809154,2.21897893 83.3816477,1.9515373 C83.98238,1.67072359 84.6231612,1.55037486 85.3306904,1.55037486 C86.0248699,1.55037486 86.6790007,1.68409567 87.279733,1.9515373 C87.893815,2.21897893 88.4411489,2.58002513 88.9083851,3.04804798 C89.3622718,3.51607083 89.7360608,4.06432617 90.0297522,4.692814 C90.3100939,5.32130183 90.44359,5.97653382 90.44359,6.67188206 L90.44359,6.67188206 Z M88.8416371,19.4288478 L88.8416371,60.0666033 L81.7129468,60.0666033 L81.7129468,19.4288478 L88.8416371,19.4288478 L88.8416371,19.4288478 Z" id="Shape"></path>
                    <polygon id="Shape" points="109.346634 0.975375354 109.346634 60.0666033 102.217944 60.0666033 102.217944 0.975375354"></polygon>
                    <polygon id="Shape" points="129.864981 0.975375354 129.864981 60.0666033 122.73629 60.0666033 122.73629 0.975375354"></polygon>
                    <path d="M170.741478,22.4910544 C170.741478,22.9858214 170.648031,23.4805885 170.461137,23.9486113 C170.260893,24.4166342 170.033949,24.8311687 169.726908,25.205587 L147.780154,54.4904454 L169.927152,54.4904454 L169.927152,60.0666033 L139.369901,60.0666033 L139.369901,57.1113733 C139.369901,56.7636992 139.449999,56.3491647 139.636893,55.8811418 C139.810438,55.413119 140.050731,54.9718403 140.384471,54.5305616 L162.438023,25.045122 L140.611415,25.045122 L140.611415,19.4288478 L170.728129,19.4288478 L170.728129,22.4910544 L170.741478,22.4910544 Z" id="Shape"></path>
                </g>
            </g>
        </g>
    </g>
</svg>