<?xml version="1.0" encoding="UTF-8" standalone="no"?>
<svg width="37px" height="37px" viewBox="0 0 37 37" version="1.1" xmlns="http://www.w3.org/2000/svg" xmlns:xlink="http://www.w3.org/1999/xlink" xmlns:sketch="http://www.bohemiancoding.com/sketch/ns">
    <!-- Generator: Sketch 3.3.3 (12081) - http://www.bohemiancoding.com/sketch -->
    <title>Untitled</title>
    <desc>Created with Sketch.</desc>
    <defs></defs>
    <g id="Page-1" stroke="none" stroke-width="1" fill="none" fill-rule="evenodd" sketch:type="MSPage">
        <path d="M16.0035122,17.2293741 L19.9083167,15.9440282 L21.1716447,19.6506284 L17.2668401,20.9359744 L16.0035122,17.2293741 L16.0035122,17.2293741 Z" id="Rectangle-path" fill="#FFFFFF" sketch:type="MSShapeGroup"></path>
        <path d="M16.0035122,17.2293741 L19.9083167,15.9440282 L21.1716447,19.6506284 L17.2668401,20.9359744 L16.0035122,17.2293741 L16.0035122,17.2293741 Z" id="Rectangle-path" fill="#FFFFFF" sketch:type="MSShapeGroup"></path>
        <path d="M35.4142857,13.3611111 C31.6261905,0.734126984 26.1642857,-2.20238095 13.5373016,1.58571429 C0.91031746,5.37380952 -2.02619048,10.8357143 1.76190476,23.4626984 C5.55,36.0896825 11.0119048,39.0261905 23.6388889,35.2380952 C36.265873,31.45 39.202381,25.9880952 35.4142857,13.3611111 L35.4142857,13.3611111 L35.4142857,13.3611111 Z M29.0420635,21.5539683 L26.6634921,22.3468254 L27.4857143,24.8134921 C27.8087302,25.8119048 27.2801587,26.8984127 26.281746,27.2214286 C26.0761905,27.2801587 25.8412698,27.3388889 25.6357143,27.3095238 C24.8722222,27.2801587 24.1380952,26.7809524 23.8738095,26.0174603 L23.0515873,23.5507937 L18.147619,25.1952381 L18.9698413,27.6619048 C19.2928571,28.6603175 18.7642857,29.7468254 17.765873,30.0698413 C17.5603175,30.1285714 17.3253968,30.1873016 17.1198413,30.1579365 C16.3563492,30.1285714 15.6222222,29.6293651 15.3579365,28.865873 L14.5357143,26.3992063 L12.1571429,27.1920635 C11.9515873,27.2507937 11.7166667,27.3095238 11.5111111,27.2801587 C10.747619,27.2507937 10.0134921,26.7515873 9.74920635,25.9880952 C9.42619048,24.9896825 9.9547619,23.9031746 10.9531746,23.5801587 L13.331746,22.7873016 L11.7460317,18.0595238 L9.36746032,18.852381 C9.16190476,18.9111111 8.92698413,18.9698413 8.72142857,18.9404762 C7.95793651,18.9111111 7.22380952,18.4119048 6.95952381,17.6484127 C6.63650794,16.65 7.16507937,15.5634921 8.16349206,15.2404762 L10.5420635,14.447619 L9.71984127,11.9809524 C9.3968254,10.9825397 9.92539683,9.89603175 10.9238095,9.57301587 C11.9222222,9.25 13.0087302,9.77857143 13.331746,10.7769841 L14.1539683,13.2436508 L19.0579365,11.5992063 L18.2357143,9.13253968 C17.9126984,8.13412698 18.4412698,7.04761905 19.4396825,6.72460317 C20.4380952,6.4015873 21.5246032,6.93015873 21.847619,7.92857143 L22.6698413,10.3952381 L25.0484127,9.60238095 C26.0468254,9.27936508 27.1333333,9.80793651 27.4563492,10.8063492 C27.7793651,11.8047619 27.2507937,12.8912698 26.252381,13.2142857 L23.8738095,14.0071429 L25.4595238,18.7349206 L27.8380952,17.9420635 C28.8365079,17.6190476 29.9230159,18.147619 30.2460317,19.1460317 C30.5690476,20.1444444 30.0404762,21.2309524 29.0420635,21.5539683 L29.0420635,21.5539683 L29.0420635,21.5539683 Z" id="Shape" fill="#FFFFFF" sketch:type="MSShapeGroup"></path>
    </g>
</svg>