<?xml version="1.0" encoding="UTF-8" standalone="no"?>
<svg width="102px" height="102px" viewBox="0 0 102 102" version="1.1" xmlns="http://www.w3.org/2000/svg" xmlns:xlink="http://www.w3.org/1999/xlink" xmlns:sketch="http://www.bohemiancoding.com/sketch/ns">
    <!-- Generator: Sketch 3.3.3 (12081) - http://www.bohemiancoding.com/sketch -->
    <title>Artboard 1</title>
    <desc>Created with Sketch.</desc>
    <defs></defs>
    <g id="Page-1" stroke="none" stroke-width="1" fill="none" fill-rule="evenodd" sketch:type="MSPage">
        <g id="Artboard-1" sketch:type="MSArtboardGroup" fill="#137DA0">
            <g id="Shape-+-Shape" sketch:type="MSLayerGroup" transform="translate(6.000000, 20.000000)">
                <path d="M88.5,51.6 L78.2,44.2 L78.2,29.2 L78.2,7.8 L78.2,3.5 C78.2,1.7 76.7,0.2 74.9,0.2 L70.7,0.2 L46.2,0.3 L18.4,0.3 L15,0.3 C13.2,0.3 11.7,1.8 11.7,3.6 L11.7,6.9 L11.7,44.1 L1.5,51.6 C-1.4,55.9 1.7,61.8 7,61.8 L83,61.8 C88.3,61.8 91.4,55.9 88.5,51.6 L88.5,51.6 Z M46.7,2.3 C46.7,2.2 46.8,2.1 46.9,2.1 C47.1,2.1 47.3,2.2 47.3,2.5 C47.3,2.6 47.2,2.7 47.1,2.7 C46.8,2.7 46.7,2.5 46.7,2.3 L46.7,2.3 Z M43.9,2.1 C44,1.7 44.3,1.3 44.8,1.2 C45.6,1.1 46.2,1.7 46.1,2.5 C46,2.9 45.7,3.3 45.2,3.4 C44.4,3.6 43.8,2.9 43.9,2.1 L43.9,2.1 Z M16.4,15.8 L16.4,6.5 C16.4,5.4 17.3,4.5 18.4,4.5 L46.3,4.5 L70.8,4.5 C72.4,4.5 73.6,5.8 73.6,7.3 L73.6,29.2 L73.6,34.9 L73.6,42.5 L64.1,42.5 C63.3,35.6 58.9,29.8 52.8,27 C55.4,24.8 57,21.4 56.8,17.7 C56.5,11.6 51.0499996,7.49999995 44.9499996,7.29999995 C38.3499996,7.09999995 33.4,11.6 33.4,18.2 C33.4,21.6 34.9,24.7 37.2,26.8 C30.9,29.5 26.3,35.4 25.5,42.4 L16.3,42.4 L16.3,29.5 L16.4,15.8 Z M82.9,57.2 L7.1,57.2 C5.5,57.2 4.5,55.4 5.4,54.1 L15.3,47.2 L74.7,47.2 L84.6,54.1 C85.5,55.4 84.6,57.2 82.9,57.2 L82.9,57.2 Z" id="Shape" sketch:type="MSShapeGroup"></path>
                <path d="M77.2,52.9 L72.5,49.2 L17.5,49.2 L12.8,52.9 C12.2,53.4 12.5,54.3 13.3,54.3 L76.8,54.3 C77.5,54.3 77.8,53.4 77.2,52.9 L77.2,52.9 Z" id="Shape" sketch:type="MSShapeGroup"></path>
            </g>
        </g>
    </g>
</svg>